# xmcd
#
# Track frame offsets:
#	150
#	13334
#	25209
#	38005
#	52137
#	66752
#	79207
#	93172
#	106442
#	122059
#
# Disc length: 1794 seconds
#
# Revision: 2
# Processed by: cddbd v1.5.1PL0 Copyright (c) Steve Scherf et al.
# Submitted via: audiograbber 1.83.01
#
DISCID=8107000a
DTITLE=Various Artist - Dirty Blues 2
DYEAR=1900
DGENRE=Blues
TTITLE0=Buddy Moss - Shake It All Night Long
TTITLE1=Peetie Wheatstraw - I Want Some Sea Food
TTITLE2=Kansas Joe and Memphis Minnie - What's The Matter with The Mill?
TTITLE3=Johnny Temple - What Is It That Smells Like Gravy?
TTITLE4=Victoria Spivey - Garter Snake Blues
TTITLE5=Blind Boy Fuller - I Want Some Of Your Pie
TTITLE6=Cow Cow Davenport and Ivy Smith - Everybody Loves That Thing
TTITLE7=Bo Carter - Let Me Roll Your Lemon
TTITLE8=Lucille Bogan and Tampa Red - Coffee Grindin' Blues
TTITLE9=Mississippi Sheiks - Grinding Old Fool
EXTD=
EXTT0=
EXTT1=
EXTT2=
EXTT3=
EXTT4=
EXTT5=
EXTT6=
EXTT7=
EXTT8=
EXTT9=
PLAYORDER=
